<svg viewBox="0 0 100 100" xmlns="http://www.w3.org/2000/svg">
  <defs>
    <linearGradient id="nav_user_inactive" x1="0%" y1="0%" x2="0%" y2="100%">
      <stop offset="0%" stop-color="#CFC4B8" />
      <stop offset="100%" stop-color="#A79C90" />
    </linearGradient>
  </defs>
  <!-- 极简头部 -->
  <circle cx="50" cy="34" r="18" fill="url(#nav_user_inactive)" />
  <!-- 极简身体/肩膀 -->
  <path d="M 24 82 C 24 60 34 54 50 54 C 66 54 76 60 76 82 A 4 4 0 0 1 72 86 L 28 86 A 4 4 0 0 1 24 82 Z" fill="url(#nav_user_inactive)" />
  <!-- 整体高光 -->
  <path d="M 32 34 A 18 18 0 0 1 68 34 A 18 18 0 0 0 32 34 Z" fill="rgba(255,255,255,0.4)" />
  <path d="M 24 82 C 24 60 34 54 50 54 C 66 54 76 60 76 82 C 60 68 40 68 24 82 Z" fill="rgba(255,255,255,0.3)" />
</svg>
