<svg viewBox="0 0 100 100" xmlns="http://www.w3.org/2000/svg">
  <defs>
    <linearGradient id="cartBody" x1="0%" y1="0%" x2="0%" y2="100%">
      <stop offset="0%" stop-color="#FFFFFF" />
      <stop offset="100%" stop-color="#F5F0E9" />
    </linearGradient>
    <linearGradient id="cartMetal" x1="0%" y1="0%" x2="0%" y2="100%">
      <stop offset="0%" stop-color="#BFA791" />
      <stop offset="100%" stop-color="#8A6448" />
    </linearGradient>
  </defs>
  <ellipse cx="50" cy="85" rx="24" ry="3" fill="#EFE9E2" />
  <line x1="28" y1="68" x2="66" y2="68" stroke="#8A6448" stroke-width="3" stroke-linecap="round" />
  <line x1="28" y1="68" x2="22" y2="40" stroke="#8A6448" stroke-width="3" stroke-linecap="round" />
  <circle cx="34" cy="74" r="5" fill="#6F4E37" />
  <circle cx="34" cy="74" r="2" fill="#FFFFFF" opacity="0.92" />
  <circle cx="60" cy="74" r="5" fill="#6F4E37" />
  <circle cx="60" cy="74" r="2" fill="#FFFFFF" opacity="0.92" />
  <path d="M 24 38 L 76 38 L 68 64 L 30 64 Z" fill="url(#cartBody)" stroke="#8A6448" stroke-width="2" stroke-linejoin="round" />
  <line x1="38" y1="38" x2="38" y2="64" stroke="#D8C9BC" stroke-width="1.5" opacity="0.75" />
  <line x1="50" y1="38" x2="50" y2="64" stroke="#D8C9BC" stroke-width="1.5" opacity="0.75" />
  <line x1="62" y1="38" x2="60" y2="64" stroke="#D8C9BC" stroke-width="1.5" opacity="0.75" />
  <line x1="28" y1="46" x2="73" y2="46" stroke="#E6DCD3" stroke-width="1.5" opacity="0.9" />
  <line x1="30" y1="56" x2="70" y2="56" stroke="#E6DCD3" stroke-width="1.5" opacity="0.9" />
  <line x1="22" y1="38" x2="78" y2="38" stroke="url(#cartMetal)" stroke-width="4" stroke-linecap="round" />
  <path d="M 24 38 L 16 38 L 16 46" fill="none" stroke="url(#cartMetal)" stroke-width="4" stroke-linecap="round" stroke-linejoin="round" />
  <path d="M 24 40 L 75 40 L 73 48 Q 50 54 26 48 Z" fill="#FFFFFF" fill-opacity="0.65" />
  <circle cx="76" cy="24" r="11" fill="#FFFFFF" stroke="#8A6448" stroke-width="2" />
  <text x="76" y="29" font-size="14" font-weight="bold" fill="#8A6448" text-anchor="middle" font-family="Arial, sans-serif">0</text>
</svg>
