<svg viewBox="0 0 100 100" xmlns="http://www.w3.org/2000/svg">
  <defs>
    <linearGradient id="grad2" x1="0%" y1="0%" x2="0%" y2="100%">
      <stop offset="0%" stop-color="#FFFFFF" />
      <stop offset="100%" stop-color="#F5F0E9" />
    </linearGradient>
  </defs>
  <ellipse cx="50" cy="85" rx="22" ry="3" fill="#EFEAE3" />
  <rect x="24" y="38" width="52" height="42" rx="4" fill="url(#grad2)" stroke="#8A6448" stroke-width="2" />
  <path d="M 24 42 A 4 4 0 0 1 28 38 L 72 38 A 4 4 0 0 1 76 42 L 76 50 Q 50 56 24 50 Z" fill="white" fill-opacity="0.25" />
  <line x1="24" y1="48" x2="76" y2="48" stroke="#8A6448" stroke-width="1.5" opacity="0.24" />
  <line x1="50" y1="38" x2="50" y2="48" stroke="#8A6448" stroke-width="1.5" opacity="0.24" />
  <rect x="30" y="56" width="18" height="14" rx="2" fill="#F8FAFC" />
  <line x1="33" y1="60" x2="45" y2="60" stroke="#CDB7A2" stroke-width="2" stroke-linecap="round" />
  <line x1="33" y1="65" x2="40" y2="65" stroke="#CDB7A2" stroke-width="2" stroke-linecap="round" />
  <rect x="58" y="48" width="10" height="32" fill="#8A6448" opacity="0.08" />
  <rect x="58" y="38" width="10" height="42" fill="#EFE4D8" opacity="1" />
  <circle cx="68" cy="30" r="11" fill="white" stroke="#8A6448" stroke-width="2" />
  <polyline points="68,24 68,30 72,34" fill="none" stroke="#8A6448" stroke-width="2" stroke-linecap="round" stroke-linejoin="round" />
</svg>
